<svg version="1.0" xmlns="http://www.w3.org/2000/svg"
 width="32px" height="32px" viewBox="0 0 64.000000 64.000000"
 preserveAspectRatio="xMidYMid meet">

<g transform="translate(0.000000,64.000000) scale(0.100000,-0.100000)"
fill="#a9a9a9" stroke="none">
<path d="M44 586 c-3 -7 -4 -38 -2 -67 l3 -54 48 -14 c42 -13 47 -18 47 -43 0
-27 -2 -28 -44 -28 -25 0 -47 -4 -51 -10 -3 -5 6 -32 20 -60 20 -40 30 -50 50
-50 24 0 25 -3 25 -60 0 -47 -4 -64 -20 -80 -23 -23 -26 -50 -8 -68 16 -16
140 -16 156 0 18 18 15 45 -8 68 -17 17 -20 33 -20 120 l0 100 80 0 c73 0 80
-2 80 -20 0 -16 -8 -19 -57 -22 -44 -2 -58 -7 -58 -18 0 -11 14 -16 58 -18
l57 -3 0 -59 c0 -47 -4 -64 -20 -80 -23 -23 -26 -50 -8 -68 16 -16 140 -16
156 0 18 18 15 45 -7 67 -11 11 -21 37 -23 58 -2 26 -8 38 -18 38 -11 0 -16
-14 -18 -49 -3 -42 0 -53 20 -68 23 -17 23 -18 -32 -17 -53 0 -54 1 -32 16 21
15 22 21 22 174 0 95 4 159 10 159 5 0 10 -37 12 -82 l3 -83 42 -3 c42 -3 42
-2 68 48 14 28 23 55 20 60 -4 6 -26 10 -51 10 -42 0 -44 1 -44 28 0 25 5 30
48 43 l47 14 3 59 c2 32 -1 63 -6 68 -5 5 -35 3 -73 -7 -35 -8 -98 -19 -139
-23 -57 -5 -75 -11 -75 -22 0 -10 12 -16 33 -18 31 -3 146 11 200 25 19 4 22
1 22 -25 l0 -30 -96 -17 c-105 -19 -235 -17 -331 6 -49 12 -53 15 -53 42 0 26
3 29 23 23 12 -3 48 -9 80 -13 48 -5 57 -3 57 10 0 10 -11 19 -27 22 -16 4
-56 13 -90 21 -76 17 -72 17 -79 0z m156 -315 c0 -153 1 -159 23 -174 21 -15
20 -16 -33 -16 -53 0 -54 1 -32 16 21 15 22 21 22 174 0 99 4 159 10 159 6 0
10 -60 10 -159z m60 129 c0 -11 -4 -20 -10 -20 -5 0 -10 9 -10 20 0 11 5 20
10 20 6 0 10 -9 10 -20z m80 0 c0 -13 -7 -20 -20 -20 -13 0 -20 7 -20 20 0 13
7 20 20 20 13 0 20 -7 20 -20z m60 0 c0 -11 -4 -20 -10 -20 -5 0 -10 9 -10 20
0 11 5 20 10 20 6 0 10 -9 10 -20z m-260 -80 c0 -11 -7 -20 -15 -20 -8 0 -19
9 -25 20 -9 18 -8 20 15 20 18 0 25 -5 25 -20z m400 0 c-6 -11 -17 -20 -25
-20 -8 0 -15 9 -15 20 0 15 7 20 25 20 23 0 24 -2 15 -20z"/>
</g>
</svg>
