<?xml version="1.0" standalone="no"?>
<svg version="1.0" xmlns="http://www.w3.org/2000/svg"
 width="32px" height="32px" viewBox="0 0 512.000000 512.000000" fill='none'
 preserveAspectRatio="xMidYMid meet">

<g transform="translate(0.000000,512.000000) scale(0.100000,-0.100000)"
fill="#000000" stroke="none">
<path d="M4633 5100 c-38 -23 -58 -59 -68 -120 -42 -277 -235 -440 -520 -440
-153 0 -230 31 -395 161 -118 93 -147 101 -187 55 -12 -15 -23 -37 -23 -48 0
-26 58 -83 170 -166 150 -112 269 -155 430 -156 318 -2 579 189 654 477 8 33
17 61 19 64 3 2 17 -20 31 -51 77 -164 74 -359 -9 -527 -42 -86 -58 -109 -153
-224 -255 -308 -338 -546 -284 -809 39 -186 133 -333 273 -424 49 -32 139 -68
249 -99 24 -7 -96 -63 -169 -79 -131 -27 -265 -11 -394 48 -74 34 -147 86
-326 232 -183 150 -306 200 -491 200 -201 0 -360 -62 -487 -189 -79 -79 -141
-189 -164 -291 -7 -30 -16 -54 -21 -54 -15 0 -58 103 -73 177 -42 196 14 383
171 576 287 351 343 474 331 726 -16 333 -184 556 -481 636 l-68 19 56 28
c119 60 273 74 412 37 126 -34 132 -34 160 -8 29 27 32 78 7 101 -74 66 -314
97 -480 62 -128 -26 -283 -108 -319 -168 -33 -55 -13 -143 39 -175 11 -7 60
-21 108 -31 222 -46 344 -161 400 -377 23 -93 25 -226 4 -308 -30 -113 -98
-223 -248 -400 -144 -169 -214 -303 -243 -463 -29 -162 -8 -317 64 -462 71
-142 147 -194 228 -154 52 26 72 58 84 137 29 184 138 330 290 388 190 72 365
59 518 -40 32 -21 112 -83 178 -138 145 -121 195 -155 287 -198 232 -107 499
-95 709 31 98 59 130 114 109 183 -18 61 -48 81 -153 102 -228 45 -367 179
-413 397 -18 85 -19 132 -1 225 28 144 112 299 251 462 121 142 184 250 227
385 20 65 23 95 23 220 -1 131 -3 152 -28 223 -34 98 -105 215 -147 245 -41
27 -94 29 -137 2z"/>
<path d="M3689 4130 c-110 -18 -208 -91 -256 -189 -25 -49 -28 -67 -28 -151 0
-113 22 -167 95 -240 64 -65 127 -92 225 -98 100 -5 172 19 242 83 179 160
144 452 -68 560 -40 21 -64 27 -144 39 -11 2 -41 0 -66 -4z m127 -161 c77 -23
133 -132 113 -220 -39 -173 -282 -204 -358 -47 -46 97 -13 210 74 256 60 31
97 33 171 11z"/>
<path d="M1305 3859 c-49 -27 -60 -80 -25 -117 l21 -22 629 0 c617 0 630 0
650 20 25 25 26 71 1 101 l-19 24 -619 2 c-437 2 -624 -1 -638 -8z"/>
<path d="M125 3425 c-14 -13 -25 -36 -25 -50 0 -14 11 -37 25 -50 l24 -25
1036 0 1036 0 26 26 c20 20 24 31 19 57 -3 18 -16 40 -27 50 -20 16 -85 17
-1056 17 l-1034 0 -24 -25z"/>
<path d="M3513 2641 c-47 -22 -67 -53 -78 -121 -36 -235 -177 -388 -401 -435
-194 -41 -330 2 -533 167 -180 148 -232 186 -301 222 -227 118 -474 125 -685
21 -155 -76 -198 -130 -175 -217 16 -57 55 -83 153 -101 163 -30 299 -122 361
-246 85 -167 87 -386 6 -556 -30 -64 -126 -195 -229 -314 -198 -231 -273 -508
-206 -761 19 -73 91 -214 130 -255 54 -58 133 -59 190 -2 26 27 34 47 48 120
52 265 240 417 517 417 142 0 244 -41 387 -157 39 -32 105 -86 147 -120 103
-84 199 -139 304 -176 74 -25 106 -31 212 -35 145 -5 243 14 353 68 155 78
197 135 163 224 -22 57 -45 71 -158 96 -118 25 -201 66 -265 130 -161 161
-193 417 -83 666 20 46 21 54 9 80 -16 33 -55 50 -93 40 -30 -7 -62 -64 -101
-179 -84 -252 3 -587 193 -744 64 -52 190 -115 270 -133 28 -7 52 -14 52 -16
0 -10 -107 -56 -162 -69 -81 -19 -218 -19 -293 0 -94 24 -213 88 -305 164
-315 261 -415 311 -630 311 -321 0 -570 -178 -646 -460 -10 -36 -20 -68 -24
-73 -11 -13 -60 100 -76 171 -41 195 14 388 163 571 232 285 298 394 329 541
26 121 15 290 -25 409 -41 123 -85 194 -169 272 -74 70 -165 120 -268 147 -35
9 -64 20 -64 24 0 12 69 44 135 64 82 25 248 25 330 0 90 -27 200 -88 290
-162 190 -155 265 -209 340 -245 138 -67 281 -85 430 -54 280 58 457 232 520
510 7 30 7 30 36 -27 38 -76 59 -165 59 -258 0 -150 -51 -284 -164 -432 -76
-98 -84 -133 -40 -167 49 -39 80 -24 159 74 65 82 134 211 165 310 31 99 38
256 16 364 -30 149 -111 297 -182 331 -49 24 -58 24 -111 1z"/>
<path d="M2487 1646 c-73 -31 -119 -66 -155 -119 -92 -133 -81 -309 26 -428
135 -150 357 -154 500 -8 127 128 126 347 -2 474 -71 71 -132 97 -231 102 -68
3 -89 0 -138 -21z m232 -159 c101 -67 112 -219 21 -301 -132 -119 -331 -22
-318 155 5 73 40 128 100 158 59 30 140 25 197 -12z"/>
<path d="M300 1590 c-30 -30 -27 -83 6 -109 26 -21 35 -21 654 -21 619 0 628
0 654 21 20 16 26 29 26 59 0 73 34 70 -682 70 -625 0 -638 0 -658 -20z"/>
<path d="M743 1200 c-46 -19 -57 -83 -20 -118 23 -22 29 -22 310 -22 274 0
288 1 307 20 30 30 27 83 -6 109 -26 20 -38 21 -298 20 -149 0 -281 -4 -293
-9z"/>
</g>
</svg>
